<svg class="tool-icon tool-icon-protect" viewBox="0 0 24 24" fill="none" aria-hidden="true">
  <path fill="currentColor" fill-opacity="0.14" d="M12 2.65c.46 0 .84.2 1.12.61l1.05 1.56c.18.26.27.57.27.89v.89H9.54v-.89c0-.32.09-.63.27-.89l1.05-1.56c.28-.41.66-.61 1.14-.61Z" />
  <path fill="none" stroke="currentColor" stroke-width="1.85" stroke-linecap="round" stroke-linejoin="round" d="M12 2.65c.46 0 .84.2 1.12.61l1.05 1.56c.18.26.27.57.27.89v.89H9.54v-.89c0-.32.09-.63.27-.89l1.05-1.56c.28-.41.66-.61 1.14-.61Z" />
  <path fill="none" stroke="currentColor" stroke-width="1.85" stroke-linecap="round" stroke-linejoin="round" d="M10.75 5.95h2.5" />
  <path fill="currentColor" fill-opacity="0.18" d="M8.65 7.4h6.7l.85 1.2v6.95l-.85 1.2h-6.7l-.85-1.2V8.6Z" />
  <path fill="none" stroke="currentColor" stroke-width="1.85" stroke-linecap="round" stroke-linejoin="round" d="M8.65 7.4h6.7l.85 1.2v6.95l-.85 1.2h-6.7l-.85-1.2V8.6Z" />
  <path fill="none" stroke="currentColor" stroke-width="1.85" stroke-linecap="round" stroke-linejoin="round" d="M10.05 9.6h4.1" />
  <path fill="none" stroke="currentColor" stroke-width="1.85" stroke-linecap="round" stroke-linejoin="round" d="M9.95 12.15c1.14-.58 1.88-.46 2.55.15.63.59 1.11.72 1.58.61" />
  <path fill="none" stroke="currentColor" stroke-width="1.85" stroke-linecap="round" stroke-linejoin="round" d="M9.7 14.5h4.7" />
  <rect fill="currentColor" fill-opacity="0.14" x="12.1" y="10.9" width="2" height="1.4" rx="0.28" />
  <rect fill="none" stroke="currentColor" stroke-width="1.85" stroke-linecap="round" stroke-linejoin="round" x="12.1" y="10.9" width="2" height="1.4" rx="0.28" />
  <path fill="none" stroke="currentColor" stroke-width="1.45" stroke-linecap="round" stroke-linejoin="round" d="M12.6 11.6h.95" />
  <path fill="currentColor" fill-opacity="0.14" d="M8.95 17.05h6.1l.95.82v2.05l-.95.83h-6.1l-.9-.83v-2.05Z" />
  <path fill="none" stroke="currentColor" stroke-width="1.85" stroke-linecap="round" stroke-linejoin="round" d="M8.95 17.05h6.1l.95.82v2.05l-.95.83h-6.1l-.9-.83v-2.05Z" />
  <path fill="none" stroke="currentColor" stroke-width="1.85" stroke-linecap="round" stroke-linejoin="round" d="M10.1 18.7h3.8" />
</svg>
