<svg class="tool-icon tool-icon-cleanup tool-icon-pack-painterly-folk" viewBox="0 0 24 24" fill="none" aria-hidden="true">
  <g transform="translate(0.2 0.15) rotate(-1.6 12 12)">
  <path fill="currentColor" d="M7.45 14.95l4.28-4.3 4.82 4.82-4.28 4.28H9.1z" fill-opacity="0.22" />
  <path fill="none" stroke="currentColor" stroke-width="2.02" stroke-linecap="round" stroke-linejoin="round" d="M7.45 14.95l4.28-4.3 4.82 4.82-4.28 4.28H9.1z" />
  <path fill="none" stroke="currentColor" stroke-width="2.02" stroke-linecap="round" stroke-linejoin="round" d="M10.92 9.78l1.84-1.86a1.86 1.86 0 0 1 2.62 0l.58.58a1.84 1.84 0 0 1 0 2.6l-1.86 1.86" />
  <path fill="none" stroke="currentColor" stroke-width="2.02" stroke-linecap="round" stroke-linejoin="round" d="M5.95 19.1h6.45" />
  <path fill="none" stroke="currentColor" stroke-width="2.02" stroke-linecap="round" stroke-linejoin="round" d="M18.15 6.3v1.32" />
  <path fill="none" stroke="currentColor" stroke-width="2.02" stroke-linecap="round" stroke-linejoin="round" d="M17.49 6.96h1.32" />
  <path fill="none" stroke="currentColor" stroke-width="2.02" stroke-linecap="round" stroke-linejoin="round" d="M16.95 9.05h2.18" />
  <path fill="none" stroke="currentColor" stroke-width="2.02" stroke-linecap="round" stroke-linejoin="round" d="M18.04 7.96v2.18" />
</g>
</svg>
